<svg width="50" height="50" viewBox="0 0 50 50" fill="none" xmlns="http://www.w3.org/2000/svg">
<path d="M46.875 48.4375H4.6875C3.8587 48.4375 3.06384 48.1083 2.47779 47.5222C1.89174 46.9362 1.5625 46.1413 1.5625 45.3125V3.125C1.5625 2.7106 1.72712 2.31317 2.02015 2.02015C2.31317 1.72712 2.7106 1.5625 3.125 1.5625C3.5394 1.5625 3.93683 1.72712 4.22985 2.02015C4.52288 2.31317 4.6875 2.7106 4.6875 3.125V45.3125H46.875C47.2894 45.3125 47.6868 45.4771 47.9799 45.7701C48.2729 46.0632 48.4375 46.4606 48.4375 46.875C48.4375 47.2894 48.2729 47.6868 47.9799 47.9799C47.6868 48.2729 47.2894 48.4375 46.875 48.4375Z" fill="#5A6371"/>
<path d="M15.2344 42.1875H11.3281C10.3957 42.1875 9.50151 41.8171 8.8422 41.1578C8.1829 40.4985 7.8125 39.6043 7.8125 38.6719V23.8281C7.8125 22.8957 8.1829 22.0015 8.8422 21.3422C9.50151 20.6829 10.3957 20.3125 11.3281 20.3125H15.2344C16.1668 20.3125 17.061 20.6829 17.7203 21.3422C18.3796 22.0015 18.75 22.8957 18.75 23.8281V38.6719C18.75 39.6043 18.3796 40.4985 17.7203 41.1578C17.061 41.8171 16.1668 42.1875 15.2344 42.1875ZM29.2969 42.1875H25.3906C24.4582 42.1875 23.564 41.8171 22.9047 41.1578C22.2454 40.4985 21.875 39.6043 21.875 38.6719V19.1406C21.875 18.2082 22.2454 17.314 22.9047 16.6547C23.564 15.9954 24.4582 15.625 25.3906 15.625H29.2969C30.2293 15.625 31.1235 15.9954 31.7828 16.6547C32.4421 17.314 32.8125 18.2082 32.8125 19.1406V38.6719C32.8125 39.6043 32.4421 40.4985 31.7828 41.1578C31.1235 41.8171 30.2293 42.1875 29.2969 42.1875ZM43.3242 42.1875H39.418C38.4856 42.1875 37.5914 41.8171 36.932 41.1578C36.2727 40.4985 35.9023 39.6043 35.9023 38.6719V12.8906C35.9023 11.9582 36.2727 11.064 36.932 10.4047C37.5914 9.7454 38.4856 9.375 39.418 9.375H43.3242C44.2566 9.375 45.1508 9.7454 45.8101 10.4047C46.4694 11.064 46.8398 11.9582 46.8398 12.8906V38.6719C46.8398 39.6043 46.4694 40.4985 45.8101 41.1578C45.1508 41.8171 44.2566 42.1875 43.3242 42.1875Z" fill="#5A6371"/>
</svg>
