<svg id="Capa_1" enable-background="new 0 0 512 512" height="512" viewBox="0 0 512 512" width="512" xmlns="http://www.w3.org/2000/svg"><g><g><path d="m397.29 504.496h-222.284c-15.922 0-28.829-12.907-28.829-28.829v-439.335c0-15.922 12.907-28.829 28.829-28.829h222.284c15.922 0 28.829 12.907 28.829 28.829v439.336c-.001 15.921-12.908 28.828-28.829 28.828z" fill="#7a6d79"/></g><g><path d="m426.115 36.335v439.33c0 15.928-12.906 28.834-28.824 28.834h-20.01c15.918 0 28.824-12.906 28.824-28.834v-439.33c0-15.928-12.906-28.834-28.824-28.834h20.01c15.918 0 28.824 12.906 28.824 28.834z" fill="#685e68"/></g><g><path d="m146.177 59.5h279.941v393h-279.941z" fill="#c8effe"/></g><g><path d="m406.105 58.817h20.013v393.683h-20.013z" fill="#99e6fc"/></g><g><path d="m373.13 196.496-91.479-78.63c-6.321-5.433-16.103-.942-16.103 7.393v23.499c0 3.568-2.892 6.46-6.46 6.46h-106.926c-36.605 0-66.28 29.675-66.28 66.28v31.057c0 26.734 21.672 48.407 48.407 48.407h12.211v-18.466c0-16.536 13.405-29.941 29.941-29.941h82.649c3.568 0 6.46 2.892 6.46 6.46v23.5c0 8.335 9.782 12.826 16.103 7.393l91.479-78.627c4.524-3.889 4.524-10.895-.002-14.785z" fill="#cb97e7"/></g><g><path d="m373.129 211.279-91.474 78.628c-6.323 5.433-16.108.94-16.108-7.394v-23.501c0-3.562-2.891-6.453-6.463-6.453h-82.649c-16.532 0-29.934 13.402-29.934 29.935v18.469h-12.216c-3.572 0-7.063-.39-10.415-1.13 0-10.68 0-21.359 0-32.039 0-18.526 16.105-36.878 34.883-37.584 9.055-.341 65.304 0 84.331 0h1.573 26.843c5.327 0 9.645 4.318 9.645 9.645v7.439c0 4.401 5.165 6.773 8.503 3.905l72.476-62.268c.37-.32.71-.66 1.021-1.021l9.985 8.584c4.522 3.889 4.522 10.903-.001 14.785z" fill="#bd80e1"/></g><g><path d="m297.7 25.998h-23.104c-4.145 0-7.504 3.36-7.504 7.504s3.359 7.503 7.504 7.503h23.104c4.145 0 7.504-3.359 7.504-7.503s-3.36-7.504-7.504-7.504z"/><path d="m426.119 364.886c4.145 0 7.504-3.36 7.504-7.504v-321.05c-.001-20.034-16.3-36.332-36.333-36.332h-222.284c-20.033 0-36.332 16.298-36.332 36.332v112.641c-34.263 6.358-60.296 36.449-60.296 72.526v31.057c0 30.829 25.081 55.911 55.91 55.911h4.386v167.202c0 20.033 16.299 36.332 36.332 36.332h222.284c20.033 0 36.332-16.298 36.332-36.332v-83.27c0-4.144-3.359-7.504-7.504-7.504s-7.504 3.359-7.504 7.504v52.598h-264.933l.322-162.499c0-12.372 10.065-22.438 22.438-22.438h81.605v22.457c0 6.824 3.852 12.832 10.054 15.679 6.203 2.847 13.268 1.852 18.443-2.595l91.478-78.627c3.817-3.281 6.007-8.05 6.007-13.083s-2.189-9.803-6.007-13.083l-91.478-78.63c-5.174-4.447-12.242-5.442-18.443-2.595s-10.054 8.855-10.054 15.679v22.456h-29.592c-4.145 0-7.504 3.359-7.504 7.503s3.359 7.504 7.504 7.504h30.636c7.7 0 13.964-6.264 13.964-13.964v-23.501c0-1.19.711-1.767 1.308-2.041.596-.274 1.497-.437 2.4.337l91.478 78.63c.68.584.782 1.317.782 1.702s-.102 1.118-.782 1.702l-91.478 78.627c-.903.775-1.803.613-2.4.338-.597-.273-1.308-.85-1.308-2.04v-23.5c0-7.699-6.264-13.964-13.964-13.964h-82.65c-20.647 0-37.445 16.798-37.445 37.445v10.962h-4.707c-22.554 0-40.903-18.349-40.903-40.904v-31.057c0-32.409 26.367-58.776 58.776-58.776h42.276c4.145 0 7.504-3.36 7.504-7.504s-3.359-7.503-7.504-7.503h-40.756v-80.71h264.934v290.378c0 4.144 3.359 7.504 7.504 7.504zm-272.438 95.117h264.934v15.665c0 11.759-9.566 21.324-21.325 21.324h-222.284c-11.759 0-21.325-9.566-21.325-21.324zm0-408.006v-15.665c0-11.759 9.566-21.324 21.325-21.324h222.284c11.759 0 21.325 9.566 21.325 21.324v15.665z"/><path d="m376.524 320.062h-179.418c-4.145 0-7.504 3.359-7.504 7.503s3.359 7.504 7.504 7.504h179.419c4.145 0 7.504-3.36 7.504-7.504s-3.36-7.503-7.505-7.503z"/><path d="m384.028 362.037c0-4.144-3.359-7.504-7.504-7.504h-179.418c-4.145 0-7.504 3.36-7.504 7.504s3.359 7.504 7.504 7.504h179.419c4.144-.001 7.503-3.36 7.503-7.504z"/><path d="m197.106 389.004c-4.145 0-7.504 3.36-7.504 7.504s3.359 7.503 7.504 7.503h148.071c4.145 0 7.504-3.359 7.504-7.503s-3.359-7.504-7.504-7.504z"/></g></g></svg>