<svg width="99" height="99" viewBox="0 0 99 99" fill="none" xmlns="http://www.w3.org/2000/svg">
<path d="M49.5 0C22.1558 0 0 22.1558 0 49.5C0 76.8442 22.1558 99 49.5 99C76.8442 99 99 76.8442 99 49.5C99 22.1558 76.8442 0 49.5 0ZM49.5 8.25C72.2842 8.25 90.75 26.7158 90.75 49.5C90.75 72.2842 72.2842 90.75 49.5 90.75C26.7158 90.75 8.25 72.2842 8.25 49.5C8.25 26.7158 26.7158 8.25 49.5 8.25ZM45.1172 15.9844L43.3125 49.7578L43.6992 53.3672L69.0938 75.7969L73.0898 71.6719L52.0781 49.3711L50.2734 15.9844H45.1172Z" fill="black"/>
</svg>
