<svg xmlns="http://www.w3.org/2000/svg" x="0px" y="0px"
width="64" height="64"
viewBox="0 0 172 172"
style=" fill:#000000;"><g fill="none" fill-rule="nonzero" stroke="none" stroke-width="1" stroke-linecap="butt" stroke-linejoin="miter" stroke-miterlimit="10" stroke-dasharray="" stroke-dashoffset="0" font-family="none" font-weight="none" font-size="none" text-anchor="none" style="mix-blend-mode: normal"><path d="M0,172v-172h172v172z" fill="none"></path><g fill="#ffffff"><path d="M143.78125,139.75v-26.875c0,-2.28437 -1.74687,-4.03125 -4.03125,-4.03125c-2.28438,0 -4.03125,1.74688 -4.03125,4.03125v22.84375h-99.4375v-22.84375c0,-2.28437 -1.74688,-4.03125 -4.03125,-4.03125c-2.28438,0 -4.03125,1.74688 -4.03125,4.03125v26.875c0,2.28438 1.74687,4.03125 4.03125,4.03125h107.5c2.28438,0 4.03125,-1.74687 4.03125,-4.03125zM86,28.21875c-2.28437,0 -4.03125,1.74687 -4.03125,4.03125v57.5125l-13.30312,-13.30313c-1.6125,-1.6125 -4.16563,-1.6125 -5.64375,0c-1.6125,1.6125 -1.6125,4.16563 0,5.64375l20.15625,20.15625c0.80625,0.80625 1.88125,1.20938 2.82188,1.20938c0.94062,0 2.01563,-0.40313 2.82187,-1.20938l20.15625,-20.15625c1.6125,-1.6125 1.6125,-4.16563 0,-5.64375c-1.6125,-1.6125 -4.16562,-1.6125 -5.64375,0l-13.30312,13.30313v-57.5125c0,-2.28438 -1.74688,-4.03125 -4.03125,-4.03125z"></path></g></g></svg>