<svg width="50" height="50" viewBox="0 0 50 50" fill="none" xmlns="http://www.w3.org/2000/svg">
<path d="M25.5429 9.89063C25.3975 9.75154 25.2041 9.67392 25.0029 9.67392C24.8017 9.67392 24.6082 9.75154 24.4628 9.89063L6.48431 27.0654C6.40796 27.1385 6.34722 27.2262 6.30576 27.3234C6.2643 27.4206 6.24298 27.5252 6.2431 27.6309L6.24017 43.75C6.24017 44.5788 6.56941 45.3737 7.15546 45.9597C7.74152 46.5458 8.53637 46.875 9.36517 46.875H18.7499C19.1643 46.875 19.5618 46.7104 19.8548 46.4174C20.1478 46.1244 20.3124 45.7269 20.3124 45.3125V32.0313C20.3124 31.8241 20.3947 31.6253 20.5413 31.4788C20.6878 31.3323 20.8865 31.25 21.0937 31.25H28.9062C29.1134 31.25 29.3121 31.3323 29.4586 31.4788C29.6051 31.6253 29.6874 31.8241 29.6874 32.0313V45.3125C29.6874 45.7269 29.8521 46.1244 30.1451 46.4174C30.4381 46.7104 30.8355 46.875 31.2499 46.875H40.6308C41.4596 46.875 42.2545 46.5458 42.8405 45.9597C43.4266 45.3737 43.7558 44.5788 43.7558 43.75V27.6309C43.7559 27.5252 43.7346 27.4206 43.6931 27.3234C43.6517 27.2262 43.5909 27.1385 43.5146 27.0654L25.5429 9.89063Z" fill="white"/>
<path d="M47.9404 23.8428L40.6357 16.8545V6.25C40.6357 5.8356 40.4711 5.43817 40.1781 5.14515C39.885 4.85212 39.4876 4.6875 39.0732 4.6875H34.3857C33.9713 4.6875 33.5739 4.85212 33.2809 5.14515C32.9878 5.43817 32.8232 5.8356 32.8232 6.25V9.37501L27.167 3.9668C26.6377 3.43164 25.8506 3.125 25 3.125C24.1523 3.125 23.3672 3.43164 22.8379 3.96777L2.06638 23.8408C1.45896 24.4268 1.38279 25.3906 1.93552 26.0254C2.07432 26.1856 2.24427 26.3159 2.43503 26.4084C2.62579 26.5008 2.83337 26.5535 3.04513 26.5632C3.2569 26.5729 3.46841 26.5394 3.66682 26.4647C3.86522 26.3901 4.04635 26.2758 4.19919 26.1289L24.4629 6.76563C24.6083 6.62655 24.8017 6.54892 25.0029 6.54892C25.2041 6.54892 25.3976 6.62655 25.5429 6.76563L45.8086 26.1289C46.1071 26.4152 46.5069 26.5714 46.9205 26.5634C47.334 26.5553 47.7275 26.3836 48.0146 26.086C48.6142 25.4649 48.5644 24.4395 47.9404 23.8428Z" fill="white"/>
</svg>
