<svg width="25" height="34" viewBox="0 0 25 34" fill="none" xmlns="http://www.w3.org/2000/svg">
<path d="M11.2154 33.314C1.75586 19.3263 0 17.8907 0 12.75C0 5.70835 5.59642 0 12.5 0C19.4036 0 25 5.70835 25 12.75C25 17.8907 23.2441 19.3263 13.7846 33.314C13.1639 34.2287 11.8361 34.2286 11.2154 33.314ZM12.5 18.0625C15.3765 18.0625 17.7083 15.684 17.7083 12.75C17.7083 9.81597 15.3765 7.4375 12.5 7.4375C9.6235 7.4375 7.29167 9.81597 7.29167 12.75C7.29167 15.684 9.6235 18.0625 12.5 18.0625Z" fill="#8D99AE"/>
</svg>
