<svg xmlns="http://www.w3.org/2000/svg" x="0px" y="0px"
width="24" height="24"
viewBox="0 0 172 172"
style=" fill:#000000;"><g transform=""><g fill="none" fill-rule="nonzero" stroke="none" stroke-width="1" stroke-linecap="butt" stroke-linejoin="miter" stroke-miterlimit="10" stroke-dasharray="" stroke-dashoffset="0" font-family="none" font-weight="none" font-size="none" text-anchor="none" style="mix-blend-mode: normal"><path d="M0,172v-172h172v172z" fill="none"></path><path d="" fill="none"></path><g fill="#ffffff"><path d="M142.76,-0.01344l-29.90515,34.41344h17.86515v30.96h24.08v-30.96h17.86515zM0,27.70813v9.5675c10.36128,9.01968 69.82862,60.77577 74.5311,64.87625c4.83664,4.214 9.63194,4.67625 11.4689,4.67625c1.83696,0 6.63226,-0.46225 11.4689,-4.67625c2.32544,-2.02616 17.83533,-15.51655 34.15813,-29.72375h-7.78703v-30.96h-26.07547l11.95265,-13.76zM0,46.20485v86.3225l51.9964,-41.05828c-16.85944,-14.67848 -40.88176,-35.5875 -51.9964,-45.26422zM172,46.4064c-2.65912,2.31512 -6.21952,5.41225 -10.32,8.98297v17.03875h-19.57844c-7.6368,6.64608 -15.42093,13.4189 -22.09797,19.22906l51.9964,40.91719zM57.27735,96.06469l-57.27735,45.23063v10.06469h172v-10.2125l-57.27735,-45.0761c-6.66328,5.79984 -11.51427,10.02298 -12.73203,11.08594c-6.59448,5.74136 -13.37967,6.36265 -15.99063,6.36265c-2.61096,0 -9.39614,-0.62457 -15.99063,-6.36937c-1.20744,-1.05264 -6.05499,-5.27234 -12.73203,-11.08594z"></path></g></g></g></svg>