<svg width="42" height="42" viewBox="0 0 42 42" fill="none" xmlns="http://www.w3.org/2000/svg">
<g clip-path="url(#clip0)">
<path d="M42 38.0623C42 40.237 40.2371 41.9998 38.0625 41.9998H3.9375C1.76285 41.9998 0 40.237 0 38.0623V16.4655C7.25332e-06 15.8684 0.135802 15.2791 0.397112 14.7423C0.658421 14.2054 1.0384 13.735 1.50831 13.3667C3.55195 11.7647 5.24081 10.4656 14.9778 3.39896C16.358 2.39268 19.0966 -0.0286352 21 7.57319e-05C22.903 -0.0289633 25.6426 2.39309 27.0222 3.39888C36.7582 10.4648 38.4494 11.7657 40.4917 13.3667C40.9616 13.735 41.3416 14.2054 41.6029 14.7423C41.8642 15.2791 42 15.8684 42 16.4655V38.0623ZM36.6133 21.9346C36.4031 21.6288 35.9817 21.5576 35.6832 21.7781C33.8092 23.1623 31.1336 25.1172 27.0222 28.101C25.642 29.1072 22.9034 31.5284 21 31.4996C19.096 31.5278 16.3604 29.1089 14.9778 28.101C10.8669 25.1175 8.19107 23.1624 6.31682 21.7781C6.0183 21.5576 5.59691 21.6288 5.38666 21.9346L4.64248 23.0171C4.54602 23.1573 4.50783 23.3295 4.53598 23.4974C4.56412 23.6652 4.6564 23.8156 4.79333 23.9167C6.67078 25.3029 9.34229 27.2545 13.4315 30.2223C15.0946 31.4348 18.0682 34.1444 21 34.1247C23.9305 34.1446 26.9031 31.4365 28.5684 30.2223C32.6577 27.2545 35.3293 25.3029 37.2066 23.9167C37.3435 23.8156 37.4358 23.6652 37.4639 23.4974C37.4921 23.3295 37.4539 23.1573 37.3574 23.0171L36.6133 21.9346Z" fill="#003478"/>
</g>
<defs>
<clipPath id="clip0">
<rect width="42" height="42" fill="white"/>
</clipPath>
</defs>
</svg>
