<svg width="42" height="42" viewBox="0 0 42 42" fill="none" xmlns="http://www.w3.org/2000/svg">
<path d="M41.2043 15.6516C41.5242 15.3973 42 15.6352 42 16.0371V32.8125C42 34.9863 40.2363 36.75 38.0625 36.75H3.9375C1.76367 36.75 0 34.9863 0 32.8125V16.0453C0 15.6352 0.467578 15.4055 0.795703 15.6598C2.6332 17.0871 5.06953 18.9 13.4367 24.9785C15.1676 26.2418 18.0879 28.8996 21 28.8832C23.9285 28.9078 26.9062 26.1926 28.5715 24.9785C36.9387 18.9 39.3668 17.0789 41.2043 15.6516ZM21 26.25C22.9031 26.2828 25.643 23.8547 27.0211 22.8539C37.9066 14.9543 38.7352 14.2652 41.2453 12.2965C41.7211 11.9273 42 11.3531 42 10.7461V9.1875C42 7.01367 40.2363 5.25 38.0625 5.25H3.9375C1.76367 5.25 0 7.01367 0 9.1875V10.7461C0 11.3531 0.278906 11.9191 0.754687 12.2965C3.26484 14.257 4.09336 14.9543 14.9789 22.8539C16.357 23.8547 19.0969 26.2828 21 26.25Z" fill="#003478"/>
</svg>
