<svg width="50" height="50" viewBox="0 0 50 50" fill="none" xmlns="http://www.w3.org/2000/svg">
<path d="M39.8438 4.6875H10.1562C8.29208 4.68957 6.50486 5.43102 5.18669 6.74919C3.86852 8.06736 3.12707 9.85458 3.125 11.7188V30.4688C3.12707 32.3329 3.86852 34.1201 5.18669 35.4383C6.50486 36.7565 8.29208 37.4979 10.1562 37.5H12.5V43.75C12.4999 44.0471 12.5845 44.338 12.7439 44.5888C12.9033 44.8395 13.1309 45.0395 13.4 45.1655C13.669 45.2915 13.9684 45.3381 14.2631 45.3C14.5577 45.2619 14.8354 45.1405 15.0635 44.9502L23.998 37.5H39.8438C41.7079 37.4979 43.4951 36.7565 44.8133 35.4383C46.1315 34.1201 46.8729 32.3329 46.875 30.4688V11.7188C46.8729 9.85458 46.1315 8.06736 44.8133 6.74919C43.4951 5.43102 41.7079 4.68957 39.8438 4.6875ZM15.625 24.2188C15.0069 24.2188 14.4027 24.0355 13.8888 23.6921C13.3749 23.3487 12.9744 22.8607 12.7379 22.2896C12.5014 21.7186 12.4395 21.0903 12.56 20.4841C12.6806 19.8779 12.9783 19.3211 13.4153 18.884C13.8523 18.447 14.4092 18.1494 15.0153 18.0288C15.6215 17.9082 16.2499 17.9701 16.8209 18.2066C17.3919 18.4431 17.88 18.8437 18.2233 19.3576C18.5667 19.8715 18.75 20.4757 18.75 21.0938C18.75 21.9226 18.4208 22.7174 17.8347 23.3035C17.2487 23.8895 16.4538 24.2188 15.625 24.2188ZM25 24.2188C24.3819 24.2188 23.7777 24.0355 23.2638 23.6921C22.7499 23.3487 22.3494 22.8607 22.1129 22.2896C21.8764 21.7186 21.8145 21.0903 21.935 20.4841C22.0556 19.8779 22.3533 19.3211 22.7903 18.884C23.2273 18.447 23.7842 18.1494 24.3903 18.0288C24.9965 17.9082 25.6249 17.9701 26.1959 18.2066C26.7669 18.4431 27.255 18.8437 27.5983 19.3576C27.9417 19.8715 28.125 20.4757 28.125 21.0938C28.125 21.9226 27.7958 22.7174 27.2097 23.3035C26.6237 23.8895 25.8288 24.2188 25 24.2188ZM34.375 24.2188C33.7569 24.2188 33.1527 24.0355 32.6388 23.6921C32.1249 23.3487 31.7244 22.8607 31.4879 22.2896C31.2514 21.7186 31.1895 21.0903 31.31 20.4841C31.4306 19.8779 31.7283 19.3211 32.1653 18.884C32.6023 18.447 33.1592 18.1494 33.7653 18.0288C34.3715 17.9082 34.9999 17.9701 35.5709 18.2066C36.1419 18.4431 36.63 18.8437 36.9733 19.3576C37.3167 19.8715 37.5 20.4757 37.5 21.0938C37.5 21.9226 37.1708 22.7174 36.5847 23.3035C35.9987 23.8895 35.2038 24.2188 34.375 24.2188Z" fill="white"/>
</svg>
