<svg width="48" height="48" viewBox="0 0 48 48" fill="none" xmlns="http://www.w3.org/2000/svg">
<path d="M24 43.5C13.2478 43.5 4.5 34.7372 4.5 23.9672C4.5 18.1125 7.05469 12.6235 11.5087 8.91565C11.7167 8.74148 11.957 8.61004 12.2158 8.52887C12.4747 8.4477 12.747 8.41838 13.0172 8.4426C13.2873 8.46682 13.5501 8.5441 13.7904 8.67002C14.0306 8.79593 14.2437 8.96801 14.4174 9.17639C14.5911 9.38478 14.7219 9.62537 14.8025 9.8844C14.883 10.1434 14.9117 10.4158 14.8868 10.6859C14.862 10.9561 14.7841 11.2186 14.6576 11.4586C14.5311 11.6986 14.3585 11.9112 14.1497 12.0844C10.6387 15.0094 8.625 19.3407 8.625 23.9672C8.625 32.4628 15.5222 39.375 24 39.375C32.4778 39.375 39.375 32.4628 39.375 23.9672C39.3748 21.6967 38.8717 19.4545 37.9018 17.4015C36.932 15.3486 35.5196 13.5359 33.7659 12.0938C33.5487 11.9242 33.3677 11.7128 33.2335 11.4721C33.0994 11.2314 33.0148 10.9662 32.9849 10.6923C32.9549 10.4183 32.9802 10.1412 33.0591 9.87713C33.1381 9.61311 33.2691 9.36758 33.4446 9.15506C33.62 8.94254 33.8362 8.76733 34.0805 8.63978C34.3248 8.51223 34.5922 8.43492 34.8668 8.41243C35.1415 8.38994 35.4178 8.42271 35.6796 8.50882C35.9414 8.59493 36.1833 8.73263 36.3909 8.91378C38.614 10.7422 40.4045 13.0404 41.6337 15.6432C42.8629 18.246 43.5003 21.0888 43.5 23.9672C43.5 34.7372 34.7522 43.5 24 43.5Z" fill="#5A6371"/>
<path d="M24 25.5C23.453 25.5 22.9284 25.2827 22.5416 24.8959C22.1548 24.5091 21.9375 23.9845 21.9375 23.4375V6.5625C21.9375 6.01549 22.1548 5.49089 22.5416 5.10409C22.9284 4.7173 23.453 4.5 24 4.5C24.547 4.5 25.0716 4.7173 25.4584 5.10409C25.8452 5.49089 26.0625 6.01549 26.0625 6.5625V23.4375C26.0625 23.9845 25.8452 24.5091 25.4584 24.8959C25.0716 25.2827 24.547 25.5 24 25.5Z" fill="#5A6371"/>
</svg>
